<svg width="16" height="17" viewBox="0 0 16 17" fill="none" xmlns="http://www.w3.org/2000/svg">
<g id="General/ic_common_info_outlined">
<g id="Icon">
<path d="M8.00004 15.1666C4.32671 15.1666 1.33337 12.1733 1.33337 8.49998C1.33337 4.82665 4.32671 1.83331 8.00004 1.83331C11.6734 1.83331 14.6667 4.82665 14.6667 8.49998C14.6667 12.1733 11.6734 15.1666 8.00004 15.1666ZM8.00004 3.16665C5.06004 3.16665 2.66671 5.55998 2.66671 8.49998C2.66671 11.44 5.06004 13.8333 8.00004 13.8333C10.94 13.8333 13.3334 11.44 13.3334 8.49998C13.3334 5.55998 10.94 3.16665 8.00004 3.16665Z" fill="#4E4E4E"/>
<path d="M8.00004 5.83331C8.36823 5.83331 8.66671 5.53484 8.66671 5.16665C8.66671 4.79846 8.36823 4.49998 8.00004 4.49998C7.63185 4.49998 7.33337 4.79846 7.33337 5.16665C7.33337 5.53484 7.63185 5.83331 8.00004 5.83331Z" fill="#4E4E4E"/>
<path d="M8.66671 7.16665H7.33337V12.5H8.66671V7.16665Z" fill="#4E4E4E"/>
</g>
</g>
</svg>
